HIERARCHY
ROOT Hips
{
	OFFSET -5.657324 109.473633 -4.910739
	CHANNELS 6 Xposition Yposition Zposition Xrotation Yrotation Zrotation
	JOINT Chest
	{
		OFFSET -0.154191 13.425072 -2.428540
		CHANNELS 3 Xrotation Yrotation Zrotation
		JOINT Chest2
		{
			OFFSET -3.374712 20.994637 2.627408
			CHANNELS 3 Xrotation Yrotation Zrotation
			JOINT Chest3
			{
				OFFSET 1.398920 14.856049 0.400680
				CHANNELS 3 Xrotation Yrotation Zrotation
				JOINT Neck
				{
					OFFSET -0.280928 17.271484 0.482787
					CHANNELS 3 Xrotation Yrotation Zrotation
					JOINT Head
					{
						OFFSET -1.939582 10.271362 0.751618
						CHANNELS 3 Xrotation Yrotation Zrotation
						End Site
						{
							OFFSET -1.910382 10.281464 0.685392
						}
					}
				}
				JOINT LeftCollar
				{
					OFFSET 3.474240 13.212784 3.893131
					CHANNELS 3 Xrotation Yrotation Zrotation
					JOINT LeftUpArm
					{
						OFFSET 16.949116 2.816635 -3.646004
						CHANNELS 3 Xrotation Yrotation Zrotation
						JOINT LeftLowArm
						{
							OFFSET 25.724682 19.643005 9.597938
							CHANNELS 3 Xrotation Yrotation Zrotation
							JOINT LeftHand
							{
								OFFSET 11.332558 26.865982 7.123120
								CHANNELS 3 Xrotation Yrotation Zrotation
								End Site
								{
									OFFSET 2.476784 5.871719 1.556795
								}
							}
						}
					}
				}
				JOINT RightCollar
				{
					OFFSET -4.831909 13.115723 2.537564
					CHANNELS 3 Xrotation Yrotation Zrotation
					JOINT RightUpArm
					{
						OFFSET -16.993118 -1.879929 -4.024445
						CHANNELS 3 Xrotation Yrotation Zrotation
						JOINT RightLowArm
						{
							OFFSET -9.429905 -14.779373 28.851032
							CHANNELS 3 Xrotation Yrotation Zrotation
							JOINT RightHand
							{
								OFFSET 6.363342 25.499588 14.499441
								CHANNELS 3 Xrotation Yrotation Zrotation
								End Site
								{
									OFFSET 1.390768 5.573181 3.169006
								}
							}
						}
					}
				}
			}
		}
	}
	JOINT LeftUpLeg
	{
		OFFSET 7.276587 1.307076 6.764760
		CHANNELS 3 Xrotation Yrotation Zrotation
		JOINT LeftLowLeg
		{
			OFFSET -29.849867 2.117157 36.721809
			CHANNELS 3 Xrotation Yrotation Zrotation
			JOINT LeftFoot
			{
				OFFSET -18.516775 -36.423790 18.193501
				CHANNELS 3 Xrotation Yrotation Zrotation
				JOINT LeftToe
				{
					OFFSET -12.372261 3.165932 19.911385
					CHANNELS 3 Xrotation Yrotation Zrotation
					End Site
					{
						OFFSET -6.454075 17.128334 14.984131
					}
				}
			}
		}
	}
	JOINT RightUpLeg
	{
		OFFSET -7.276587 -1.307274 -6.764728
		CHANNELS 3 Xrotation Yrotation Zrotation
		JOINT RightLowLeg
		{
			OFFSET 0.361702 -47.364948 0.664534
			CHANNELS 3 Xrotation Yrotation Zrotation
			JOINT RightFoot
			{
				OFFSET 8.095632 -42.672379 -10.682135
				CHANNELS 3 Xrotation Yrotation Zrotation
				JOINT RightToe
				{
					OFFSET -13.709139 -16.901361 9.271462
					CHANNELS 3 Xrotation Yrotation Zrotation
					End Site
					{
						OFFSET -19.968054 -2.577332 12.417341
					}
				}
			}
		}
	}
}
MOTION
Frames: 18
Frame Time: 0.033333
-6.886872 111.704109 -7.096667 -5.871458 -2.851758 1.762794 2.401584 0.068407 2.229527 1.073664 -0.143571 0.993386 -0.130212 -2.686393 -3.149308 1.991361 7.386343 -7.066910 -0.000000 0.000001 -0.000001 1.332440 -0.200405 -0.610118 1.354984 1.929203 2.481289 -4.805677 5.580283 4.798268 0.000002 0.000000 0.000003 -0.720500 -5.046843 -4.731645 9.024347 -0.345137 7.205194 20.677918 38.548577 -21.700117 0.000002 0.000006 0.000003 -12.808091 6.116018 -1.819604 1.118151 -5.451624 -4.217709 6.209811 9.450503 -1.182422 -0.000000 0.000003 0.000003 6.371935 -0.506939 -1.728359 1.333763 -0.594263 -1.280063 0.981985 1.042908 1.172114 0.000000 -0.000002 0.000001 
-6.847204 111.729080 -7.135654 -6.278066 -2.488362 1.787097 2.626126 0.091061 2.303396 0.616530 -0.354900 1.090368 0.294624 -2.568443 -3.251535 1.878591 7.289058 -6.945411 0.000000 -0.000000 0.000001 1.596589 -0.636654 -0.597764 1.722246 1.614188 2.384326 -4.843702 5.752853 5.145170 -0.000000 0.000001 0.000002 -0.769437 -5.462946 -4.721545 9.245441 -0.305027 7.254294 20.836950 38.655838 -21.956625 -0.000000 0.000003 0.000005 -12.602018 5.815235 -2.022035 1.189567 -5.405234 -4.203765 6.270106 9.234363 -1.031413 -0.000000 0.000003 0.000003 6.634340 -0.470892 -1.687208 1.413691 -0.572688 -1.423687 1.011461 0.867729 1.211168 0.000001 -0.000004 0.000001 
-6.810418 111.744339 -7.182936 -5.959505 -2.768194 1.959219 1.691736 -0.014051 2.153827 2.182781 0.294987 1.103188 -0.670175 -2.916847 -3.239826 1.892307 7.454317 -7.064232 -0.000001 -0.000002 -0.000000 1.654807 -0.903980 -0.571017 1.878810 1.390785 2.335425 -4.057841 5.232364 5.355745 0.000001 0.000000 0.000003 -0.922755 -5.867440 -4.787897 9.163202 0.016317 7.360952 21.605855 38.639859 -22.271903 -0.000003 0.000003 -0.000000 -13.241441 6.184813 -1.992851 1.373357 -6.019647 -4.561105 6.172705 9.934211 -1.597734 -0.000002 0.000003 0.000002 6.337590 -0.458785 -1.762661 1.574347 -0.576703 -1.809446 0.879507 1.354547 1.395731 -0.000000 -0.000004 0.000000 
-6.774134 111.752739 -7.221348 -5.987353 -2.849053 1.985559 2.036599 -0.000220 2.162662 1.949085 0.304181 0.919251 -0.577646 -2.692048 -3.073298 1.966103 7.512935 -7.175447 -0.000001 -0.000002 0.000000 1.672403 -1.122079 -0.490936 1.783773 1.415332 2.441898 -3.895812 5.116017 5.390701 -0.000001 0.000002 0.000003 -0.884242 -5.677517 -4.719455 8.999251 -0.220828 7.176826 21.481857 38.956827 -22.459223 -0.000003 -0.000001 0.000004 -13.453518 6.412327 -1.890478 1.504876 -6.531672 -4.824313 5.976848 10.415565 -2.025228 0.000001 0.000002 -0.000000 6.485917 -0.474167 -1.720298 1.502242 -0.588405 -2.018856 0.651696 1.634128 1.354917 0.000000 -0.000002 0.000000 
-6.738331 111.751511 -7.266301 -5.673122 -3.026885 2.175611 2.133188 -0.019776 1.783928 2.087752 0.392684 0.922409 -0.881300 -2.598676 -2.900519 1.958526 7.542625 -7.225843 -0.000000 -0.000000 -0.000001 1.760072 -1.144206 -0.437446 1.922253 1.255130 2.629106 -2.561405 4.365674 5.208088 -0.000000 0.000002 0.000003 -0.794652 -5.566302 -4.824854 8.831563 -0.187814 6.842745 20.542687 38.923899 -22.065874 0.000002 -0.000001 0.000003 -14.096213 6.906724 -1.686841 1.517650 -6.946053 -5.236870 6.105089 10.466623 -2.032108 -0.000001 0.000007 0.000003 6.163507 -0.433344 -1.697638 1.758629 -0.646190 -2.527842 0.637062 2.127858 1.597021 0.000000 -0.000004 0.000000 
-6.691096 111.758057 -7.312070 -5.229489 -2.636377 2.107010 1.968811 -0.038238 2.136203 2.506263 0.505766 1.015390 -1.124608 -3.039911 -3.136725 1.974064 7.785252 -7.513988 -0.000001 -0.000000 -0.000000 1.508004 -0.593235 -0.328457 1.806811 1.426660 2.847624 -3.470757 4.880818 5.356326 -0.000000 0.000003 0.000001 -0.679543 -5.290779 -4.830313 8.311229 0.008504 6.300965 20.474602 38.102087 -21.508807 -0.000000 0.000000 0.000004 -14.186113 6.567362 -2.169714 1.520326 -7.029469 -5.252777 5.915124 10.506220 -2.284911 -0.000001 0.000002 0.000003 5.838729 -0.422177 -1.587939 1.431003 -0.733046 -2.610544 0.743645 2.108004 1.628799 0.000000 -0.000002 0.000001 
-6.645634 111.766335 -7.358210 -5.323285 -2.735447 2.208757 2.209321 -0.019072 2.024756 1.487340 0.116124 0.974671 -0.193756 -2.407212 -3.046721 1.466343 7.627586 -7.468884 -0.000000 0.000001 0.000000 1.426934 -0.484722 -0.375313 1.711574 1.277445 2.923300 -3.251033 4.598520 5.289345 0.000001 0.000003 0.000003 -0.803261 -5.553448 -4.731836 8.195293 -0.063009 6.315158 21.583777 38.471993 -22.019008 0.000000 -0.000001 0.000003 -14.190383 6.708123 -2.047154 1.455234 -7.188550 -5.499259 5.959682 10.774064 -2.435742 -0.000000 0.000005 0.000006 5.874053 -0.475947 -1.753933 1.457724 -0.783967 -2.634476 0.649003 2.131377 1.531979 0.000001 -0.000002 0.000001 
-6.598094 111.772713 -7.399461 -5.474688 -2.435953 2.119492 2.479048 0.017804 2.306688 1.330463 0.053181 0.976974 0.062113 -2.808774 -3.208927 1.334160 7.607104 -7.527040 -0.000001 0.000001 -0.000000 1.409684 -0.747339 -0.302199 1.418935 1.713470 2.906588 -2.868141 4.207941 5.373866 0.000000 0.000002 0.000003 -0.955896 -5.651942 -4.810071 8.077278 -0.086891 6.321904 21.341105 39.100169 -22.320874 0.000003 -0.000001 0.000003 -13.860709 6.489243 -2.061925 1.358223 -7.199836 -5.730901 6.128493 10.886287 -2.366895 -0.000002 0.000003 0.000004 6.034841 -0.462029 -1.673463 1.304126 -0.858519 -2.635853 0.720968 2.177731 1.643780 0.000000 -0.000000 0.000001 
-6.549474 111.774895 -7.439357 -5.555924 -2.417349 2.086386 2.278092 -0.003432 2.465652 0.603682 -0.213859 0.945581 0.895027 -2.542794 -3.261930 1.449387 7.736001 -7.656600 -0.000001 0.000003 0.000001 1.555668 -0.959422 -0.307195 1.456823 1.869230 2.988104 -3.522934 4.824808 5.492205 -0.000000 0.000002 0.000003 -0.987971 -5.828115 -4.880726 8.213200 -0.131049 6.300070 22.027751 39.058099 -22.704812 0.000002 0.000003 0.000003 -13.601598 6.340897 -2.074586 0.986880 -6.486847 -5.632697 6.458896 10.381571 -1.744686 0.000004 0.000001 0.000002 6.330250 -0.485766 -1.714486 1.032096 -0.918015 -2.557115 0.963845 1.790588 1.712419 0.000001 -0.000002 0.000001 
-6.505178 111.777267 -7.480535 -5.688963 -2.529817 2.165218 2.782317 0.056789 2.352501 -0.114461 -0.477069 0.862152 1.183411 -2.487604 -3.197006 1.406176 7.687713 -7.698567 -0.000001 -0.000000 0.000000 1.401614 -0.738574 -0.359772 1.359469 1.879524 3.084182 -3.704319 4.901557 5.637060 0.000001 0.000002 0.000001 -0.997864 -5.760327 -4.800442 8.061402 -0.127590 6.246269 22.945184 39.192899 -23.178286 0.000003 0.000007 0.000001 -13.516440 6.469360 -1.919159 1.083965 -6.913611 -5.876573 6.336158 10.714140 -2.103645 -0.000002 0.000003 0.000003 6.582024 -0.558801 -1.870224 0.881377 -0.977200 -2.520148 0.959114 1.819309 1.705286 -0.000000 -0.000002 0.000001 
-6.465246 111.784790 -7.523865 -5.390607 -2.692571 2.221583 3.691045 0.132859 2.279855 -0.147371 -0.274112 0.573695 0.297936 -3.409558 -2.799625 0.084908 8.003323 -8.100159 -0.000000 -0.000000 0.000001 0.422484 1.528030 -0.201045 2.155730 0.878981 3.013817 -2.779353 4.594840 5.373077 0.000001 0.000000 0.000003 -0.093833 -3.400621 -5.027663 7.911791 -0.968584 5.040753 20.479883 37.316192 -21.068251 0.000002 0.000006 0.000002 -13.625395 6.543974 -1.814094 0.689356 -6.780094 -5.980747 6.560610 10.631448 -1.943041 -0.000002 0.000003 0.000005 6.019993 -0.463056 -1.966657 1.212755 -0.813635 -2.465050 0.449053 3.147865 1.810963 -0.000000 0.000005 -0.000000 
-6.431170 111.789444 -7.565849 -5.260626 -2.472115 2.173646 4.098925 0.165271 2.414374 -0.994279 -0.651956 0.646738 0.557947 -3.542494 -2.838671 -0.446033 8.345286 -8.381510 -0.000001 -0.000000 0.000000 0.171039 2.196392 -0.217518 2.625427 0.255311 2.929841 -2.530222 4.545475 5.227151 0.000000 0.000004 0.000003 0.209871 -2.640237 -4.981543 7.742724 -0.995504 4.595487 19.735874 36.713462 -20.388535 0.000001 0.000001 0.000003 -13.432628 6.220600 -1.983812 0.481938 -6.650152 -5.939439 6.454312 10.326741 -1.810880 -0.000003 0.000004 0.000003 5.745106 -0.381399 -1.876413 1.449493 -0.631766 -2.418488 0.328726 2.814907 1.601538 -0.000000 0.000001 0.000000 
-6.396233 111.797081 -7.609552 -5.105180 -2.684150 2.157369 4.220251 0.176616 2.442786 -0.519254 -0.450213 0.627961 0.072584 -3.525040 -2.785771 -0.539232 8.334436 -8.414841 -0.000001 0.000001 -0.000001 0.147785 2.162582 -0.185657 2.829207 -0.278473 2.789876 -2.025210 4.222511 5.017217 0.000002 0.000002 0.000001 0.296006 -2.379428 -4.928100 7.649596 -1.302443 4.415466 19.565920 36.362886 -20.127253 -0.000001 0.000001 -0.000000 -13.611129 6.422166 -1.874609 0.706389 -7.198804 -6.051868 6.347469 10.619971 -2.114378 -0.000001 0.000001 0.000002 5.536740 -0.381583 -1.859882 1.422287 -0.618181 -2.482555 0.372000 3.098181 1.822810 0.000000 0.000003 0.000001 
-6.357481 111.804329 -7.652337 -5.339508 -3.025746 2.383587 4.400913 0.207860 2.259530 -0.911431 -0.581095 0.575748 0.199105 -3.207534 -2.757305 -0.363900 8.481340 -8.563869 -0.000000 -0.000000 -0.000000 -0.176676 2.480674 -0.229328 2.908866 -0.744901 2.683490 -1.746738 3.823398 5.094129 0.000000 0.000003 0.000003 0.335184 -2.001759 -5.004143 7.964947 -1.816788 4.696918 20.170290 36.811182 -20.606080 0.000002 0.000001 -0.000000 -13.524595 6.572752 -1.693971 0.693464 -7.245875 -6.267849 6.397992 10.787505 -2.152373 -0.000002 0.000003 0.000003 5.822587 -0.460053 -2.119677 1.370517 -0.651721 -2.561036 0.230797 3.600566 1.949980 0.000001 0.000001 0.000000 
-6.333132 111.819275 -7.696405 -5.437762 -2.876135 2.386071 3.936428 0.166234 2.259788 -0.138914 -0.291680 0.599994 -0.191117 -3.641180 -2.879650 -0.993238 8.262042 -8.319909 -0.000001 0.000003 0.000001 -0.316022 2.569056 -0.034769 2.642663 -0.498913 2.684611 -3.683076 4.796981 5.179816 0.000002 0.000001 0.000003 0.260995 -2.006759 -5.025504 8.200268 -2.080428 4.983114 20.378689 37.847458 -21.142589 0.000002 0.000001 0.000003 -13.157350 6.249708 -1.850490 0.205098 -6.361185 -6.299084 6.657275 10.468832 -1.637864 -0.000001 0.000007 0.000005 5.869205 -0.504883 -2.007615 1.114397 -0.719588 -2.709069 0.163199 3.792286 2.065806 0.000000 0.000001 0.000001 
-6.307536 111.831367 -7.740432 -5.604431 -2.738923 2.316057 3.996308 0.166084 2.402017 -0.475892 -0.433799 0.601235 0.226842 -3.645099 -2.949344 -1.168249 8.242812 -8.300480 -0.000001 0.000003 -0.000000 -0.460751 2.900429 0.078047 2.754632 -0.859309 2.824987 -3.179578 4.483276 4.763244 -0.000000 0.000000 0.000003 0.197420 -2.184724 -5.008318 8.146823 -1.945293 4.970102 20.495606 38.219198 -21.278792 -0.000000 0.000008 0.000003 -12.962991 6.050218 -1.938812 0.172550 -6.472948 -6.379056 6.687646 10.679602 -1.827140 -0.000001 0.000001 0.000001 5.940611 -0.503050 -1.967709 1.199886 -0.701681 -2.630225 0.237154 3.494365 1.974253 -0.000000 -0.000000 0.000001 
-6.289646 111.832169 -7.781793 -5.703451 -2.634485 2.384527 3.906484 0.145718 2.330197 -0.741506 -0.511824 0.538499 0.605002 -3.482545 -2.840332 -0.690933 8.375076 -8.504298 -0.000000 -0.000002 0.000001 -0.212592 2.627234 0.096995 3.091792 -1.213712 2.739109 -2.922867 4.737286 4.671366 -0.000000 0.000002 0.000003 0.267625 -2.289712 -5.171658 8.309391 -1.903722 4.972815 19.981220 37.592825 -21.033704 0.000002 0.000001 0.000002 -13.013148 6.122667 -1.950687 0.363760 -6.651908 -6.679184 6.618025 10.428740 -1.604679 0.000001 -0.000001 -0.000000 6.006843 -0.561506 -1.958442 1.442682 -0.960031 -2.715063 0.103289 3.779662 1.762844 -0.000001 0.000006 0.000000 
-6.275840 111.838303 -7.822690 -5.494347 -2.671893 2.480068 3.769328 0.111070 2.192320 -0.853388 -0.530785 0.463714 0.770380 -3.481553 -2.731128 -1.519887 8.257476 -8.534389 -0.000000 0.000005 0.000001 -0.151427 2.917915 0.336531 3.328963 -1.137165 2.626989 -2.885322 5.031819 4.900008 -0.000001 0.000003 0.000001 0.427402 -2.275904 -5.299426 8.168594 -1.581010 4.602035 19.274917 36.935245 -20.639606 0.000002 0.000003 -0.000001 -13.229393 6.261167 -1.977130 0.273249 -6.768077 -6.853799 6.670998 10.431962 -1.576233 -0.000003 0.000002 -0.000000 5.751783 -0.572899 -1.968295 1.500434 -1.048237 -2.887477 0.242405 3.878796 1.798866 0.000001 -0.000002 0.000001 
